<?xml version="1.0" encoding="UTF-8" standalone="no"?>
<svg width="75px" height="68px" viewBox="0 0 75 68" version="1.1" xmlns="http://www.w3.org/2000/svg" xmlns:xlink="http://www.w3.org/1999/xlink" xmlns:sketch="http://www.bohemiancoding.com/sketch/ns">
    <title>menu</title>
    <description>Created with Sketch (http://www.bohemiancoding.com/sketch)</description>
    <defs></defs>
    <g id="Page 1" fill="#D8D8D8" fill-rule="evenodd">
        <g id="Artboard 1">
            <path d="M0,29.9962027 L0,38.0037973 C0,39.5524067 0.880893935,40.8950141 2.16902166,41.5584561 C2.38995915,41.7057145 2.62888271,41.8329458 2.88430764,41.936649 L66.5401998,67.7811052 C68.583487,68.6106851 70.9020363,67.6223498 71.7247841,65.5760163 L74.7098798,58.1515039 C75.5327509,56.1048639 74.545348,53.7746601 72.504729,52.9461635 L25.9316812,34.0373862 L72.504729,15.1286088 C74.545348,14.3001122 75.5327509,11.9699084 74.7098798,9.92326842 L71.7247841,2.49875601 C70.9020363,0.452422474 68.583487,-0.535912744 66.5401998,0.293667131 L2.88430764,26.1381233 C1.14105786,26.7425961 0,28.2365875 0,29.9962027 Z M0,29.9962027" id="Rectangle 3" fill="#FFFFFF"></path>
        </g>
    </g>
</svg>