<?xml version="1.0" encoding="UTF-8" standalone="no"?>
<svg width="75px" height="68px" viewBox="0 0 75 68" version="1.1" xmlns="http://www.w3.org/2000/svg" xmlns:xlink="http://www.w3.org/1999/xlink" xmlns:sketch="http://www.bohemiancoding.com/sketch/ns">
    <title>Artboard 1</title>
    <description>Created with Sketch (http://www.bohemiancoding.com/sketch)</description>
    <defs></defs>
    <g id="Page 1" fill="#D8D8D8" fill-rule="evenodd">
        <g id="Artboard 1">
            <path d="M2.71983425,41.8656036 C1.14105786,41.3321762 0,39.8381848 0,38.0785696 L0,30.070975 C0,28.5223656 0.880893935,27.1797583 2.16902166,26.5163162 C2.38995915,26.3690578 2.62888271,26.2418265 2.88430764,26.1381233 L66.5401998,0.293667131 C68.583487,-0.535912744 70.9020363,0.452422474 71.7247841,2.49875601 L74.7098798,9.92326842 C75.5327509,11.9699084 74.545348,14.3001122 72.504729,15.1286088 L25.9316812,34.0373862 L72.504729,52.9461635 C74.545348,53.7746601 75.5327509,56.1048639 74.7098798,58.1515039 L71.7247841,65.5760163 C70.9020363,67.6223498 68.583487,68.6106851 66.5401998,67.7811052 L2.88430764,41.936649 C2.82869585,41.9140705 2.77386628,41.8903766 2.71983425,41.8656036 Z M2.71983425,41.8656036" id="Rectangle 3" fill="#FFFFFF" transform="translate(37.500000, 34.037386) scale(-1, 1) translate(-37.500000, -34.037386)"></path>
        </g>
    </g>
</svg>