<?xml version="1.0" encoding="UTF-8" standalone="no"?>
<svg width="500px" height="500px" viewBox="0 0 500 500" version="1.1" xmlns="http://www.w3.org/2000/svg" xmlns:xlink="http://www.w3.org/1999/xlink" xmlns:sketch="http://www.bohemiancoding.com/sketch/ns">
    <title>pot</title>
    <description>Created with Sketch (http://www.bohemiancoding.com/sketch)</description>
    <defs></defs>
    <g id="Page 1" fill="#D8D8D8" fill-rule="evenodd">
        <g id="Artboard 3">
            <path d="M250,500 C388.071194,500 500,388.071194 500,250 C500,111.928806 388.071194,0 250,0 C111.928806,0 0,111.928806 0,250 C0,388.071194 111.928806,500 250,500 Z M250,500" id="Oval 31" fill="#4A4A4A"></path>
            <path d="M52.9993885,223 C48.5814482,223 45,226.584935 45,230.99846 L45,255.00154 C45,259.418968 48.591272,263 52.9993885,263 L394.000611,263 C398.418552,263 402,259.415065 402,255.00154 L402,230.99846 C402,226.581032 398.408728,223 394.000611,223 L52.9993885,223 Z M52.9993885,223" id="Rectangle 47" fill="#FFFFFF"></path>
            <path d="M132.00162,240 C127.582447,240 124,243.58429 124,248.00237 L124,346.99769 C124,367.985786 141.010707,385 161.999187,385 L364.000813,385 C384.987185,385 402,367.993804 402,346.99769 L402,248.00237 C402,243.582783 398.408925,240 393.99838,240 L132.00162,240 Z M132.00162,240" id="Rectangle 48" fill="#FFFFFF"></path>
            <path d="M247.994844,110 C245.788552,110 244,111.791318 244,114.003263 L244,188.996737 C244,191.207678 245.781851,193 247.994844,193 L278.005156,193 C280.211448,193 282,191.208682 282,188.996737 L282,114.003263 C282,111.792322 280.218149,110 278.005156,110 L247.994844,110 Z M247.994844,110" id="Rectangle 49" fill="#FFFFFF"></path>
            <path d="M179.994844,110 C177.788552,110 176,111.791318 176,114.003263 L176,188.996737 C176,191.207678 177.781851,193 179.994844,193 L210.005156,193 C212.211448,193 214,191.208682 214,188.996737 L214,114.003263 C214,111.792322 212.218149,110 210.005156,110 L179.994844,110 Z M179.994844,110" id="Rectangle 49" fill="#FFFFFF"></path>
            <path d="M315.994844,110 C313.788552,110 312,111.791318 312,114.003263 L312,188.996737 C312,191.207678 313.781851,193 315.994844,193 L346.005156,193 C348.211448,193 350,191.208682 350,188.996737 L350,114.003263 C350,111.792322 348.218149,110 346.005156,110 L315.994844,110 Z M315.994844,110" id="Rectangle 49" fill="#FFFFFF"></path>
        </g>
    </g>
</svg>